<svg xmlns="http://www.w3.org/2000/svg" width="1200" height="630" viewBox="0 0 1200 630"><rect width="1200" height="630" fill="#0d1117"/><line x1="0" x2="1200" y1="0" y2="0" stroke="#161b22" stroke-width="1"/><line x1="0" x2="1200" y1="630" y2="630" stroke="#161b22" stroke-width="1"/><rect width="1040" height="510" x="80" y="60" fill="#161b22" stroke="#30363d" stroke-width="1" rx="8"/><rect width="1040" height="38" x="80" y="60" fill="#21262d" rx="8"/><rect width="1040" height="12" x="80" y="86" fill="#21262d"/><circle cx="108" cy="79" r="6" fill="#ff5f57"/><circle cx="130" cy="79" r="6" fill="#febc2e"/><circle cx="152" cy="79" r="6" fill="#28c840"/><text x="600" y="84" fill="#8b949e" font-family="monospace" font-size="13" text-anchor="middle">bash: wait-probe image size</text><text x="112" y="138" fill="#3fb950" font-family="monospace" font-size="14">$</text><text x="128" y="138" fill="#c9d1d9" font-family="monospace" font-size="14">docker images ghcr.io/glassflow/wait-probe --format &quot;{{.Tag}}\t{{.Size}}&quot;</text><text x="112" y="168" fill="#8b949e" font-family="monospace" font-size="13">TAG SIZE</text><line x1="112" x2="500" y1="174" y2="174" stroke="#30363d" stroke-width="1"/><text x="112" y="194" fill="#e06c75" font-family="monospace" font-size="13">1.0.0</text><text x="260" y="194" fill="#e06c75" font-family="monospace" font-size="13">25.7 MB</text><rect width="514" height="24" x="112" y="202" fill="#e06c7520" rx="3"/><rect width="514" height="24" x="112" y="202" fill="#e06c75" opacity=".7" rx="3"/><text x="636" y="219" fill="#e06c75" font-family="monospace" font-size="12">25.7 MB (curlimages/curl)</text><text x="112" y="258" fill="#3fb950" font-family="monospace" font-size="13">1.1.1</text><text x="260" y="258" fill="#3fb950" font-family="monospace" font-size="13">9.05 MB</text><rect width="181" height="24" x="112" y="266" fill="#3fb95020" rx="3"/><rect width="181" height="24" x="112" y="266" fill="#3fb950" opacity=".7" rx="3"/><text x="303" y="283" fill="#3fb950" font-family="monospace" font-size="12">9.05 MB (alpine + netcat-openbsd)</text><line x1="112" x2="900" y1="316" y2="316" stroke="#30363d" stroke-dasharray="4 4" stroke-width="1"/><text x="112" y="346" fill="#8b949e" font-family="monospace" font-size="13">reduction:</text><text x="260" y="346" fill="#58a6ff" font-family="monospace" font-size="22" font-weight="bold">65% smaller</text><text x="112" y="400" fill="#3fb950" font-family="monospace" font-size="14">$</text><text x="128" y="400" fill="#c9d1d9" font-family="monospace" font-size="14">nc -z postgres-host 5432 <tspan fill="#8b949e">&amp;&amp; echo &quot;ready&quot;</tspan></text><text x="112" y="424" fill="#3fb950" font-family="monospace" font-size="14">ready</text><text x="600" y="530" fill="#484f58" font-family="monospace" font-size="12" text-anchor="middle">ghcr.io/glassflow/wait-probe · from curlimages/curl to alpine + netcat-openbsd</text><rect width="9" height="16" x="112" y="452" fill="#3fb950" opacity=".9"/></svg>